<?xml version="1.0" encoding="UTF-8" standalone="no"?>
<svg
   width="252.66472"
   zoomAndPan="magnify"
   viewBox="0 0 252.66472 167.70576"
   height="167.70576"
   preserveAspectRatio="xMidYMid"
   version="1.0"
   id="svg46"
   sodipodi:docname="blutattoo-trimmed-black.svg"
   inkscape:version="1.4.2 (ebf0e940, 2025-05-08)"
   xmlns:inkscape="http://www.inkscape.org/namespaces/inkscape"
   xmlns:sodipodi="http://sodipodi.sourceforge.net/DTD/sodipodi-0.dtd"
   xmlns="http://www.w3.org/2000/svg"
   xmlns:svg="http://www.w3.org/2000/svg">
  <sodipodi:namedview
     id="namedview46"
     pagecolor="#ffffff"
     bordercolor="#000000"
     borderopacity="0.25"
     inkscape:showpageshadow="2"
     inkscape:pageopacity="0.0"
     inkscape:pagecheckerboard="0"
     inkscape:deskcolor="#d1d1d1"
     inkscape:zoom="1.9903787"
     inkscape:cx="112.03898"
     inkscape:cy="44.4639"
     inkscape:window-width="1512"
     inkscape:window-height="832"
     inkscape:window-x="0"
     inkscape:window-y="38"
     inkscape:window-maximized="1"
     inkscape:current-layer="svg46" />
  <defs
     id="defs1">
    <g
       id="g1" />
  </defs>
  <g
     id="g47"
     transform="translate(4.0096678,-0.50241695)">
    <g
       fill="#00000"
       fill-opacity="1"
       id="g4"
       transform="translate(-63.872093,-113.7585)">
      <g
         transform="translate(122.67221,170.1043)"
         id="g3">
        <g
           id="g2">
          <path
             d="m 10.6875,5.09375 c 0,0.800781 -0.433594,1.203125 -1.296875,1.203125 -0.804687,0 -1.5,-0.367187 -2.09375,-1.09375 C 5.160156,2.460938 4.09375,-0.734375 4.09375,-4.390625 v -35.78125 c 0,-0.332031 -0.039062,-0.765625 -0.109375,-1.296875 -0.0625,-0.53125 -0.09375,-0.929688 -0.09375,-1.203125 0,-1.0625 0.5,-1.59375 1.5,-1.59375 0.863281,0 1.296875,0.570313 1.296875,1.703125 0,0.261719 -0.070312,0.609375 -0.203125,1.046875 -0.125,0.429687 -0.1875,0.808594 -0.1875,1.140625 V -4.390625 C 6.296875,-1.597656 6.863281,0.726562 8,2.59375 8.195312,2.863281 8.691406,3.210938 9.484375,3.640625 10.285156,4.078125 10.6875,4.5625 10.6875,5.09375 Z m 0,0"
             id="path1" />
        </g>
      </g>
    </g>
    <g
       fill="#000000"
       fill-opacity="1"
       id="g7"
       transform="translate(-63.872093,-113.7585)">
      <g
         transform="translate(130.02441,170.1043)"
         id="g6">
        <g
           id="g5">
          <path
             d="m 3,-13.984375 c 0,-2.332031 0.414062,-4.582031 1.25,-6.75 0.832031,-2.164063 1.644531,-4.316406 2.4375,-6.453125 0.207031,-0.257812 0.410156,-0.691406 0.609375,-1.296875 C 7.222656,-28.148438 7.1875,-28.613281 7.1875,-29.875 c 0,-1.394531 0.535156,-2.09375 1.609375,-2.09375 0.925781,0 1.390625,0.664062 1.390625,1.984375 0,1.074219 -0.367188,2.375 -1.09375,3.90625 -1.53125,3.261719 -2.464844,5.324219 -2.796875,6.1875 -0.730469,2.136719 -1.09375,4.4375 -1.09375,6.90625 0,2.867187 0.976563,5.496094 2.9375,7.890625 1.96875,2.398438 4.414063,3.59375 7.34375,3.59375 3.46875,0 6.234375,-0.960938 8.296875,-2.890625 2.0625,-1.9375 3.09375,-4.300781 3.09375,-7.09375 v -16.6875 c 0,-0.332031 -0.03125,-0.765625 -0.09375,-1.296875 -0.0625,-0.539062 -0.09375,-0.941406 -0.09375,-1.203125 0,-1.070313 0.492188,-1.609375 1.484375,-1.609375 0.875,0 1.3125,0.570312 1.3125,1.703125 0,0.273437 -0.07031,0.625 -0.203125,1.0625 -0.136719,0.429687 -0.203125,0.808594 -0.203125,1.140625 v 24.484375 c 0,0.261719 0.06641,0.609375 0.203125,1.046875 0.132812,0.429688 0.203125,0.808594 0.203125,1.140625 C 29.484375,-0.566406 29.046875,0 28.171875,0 27.179688,0 26.6875,-0.53125 26.6875,-1.59375 c 0,-0.269531 0.03125,-0.472656 0.09375,-0.609375 0,-0.0625 0,-0.257813 0,-0.59375 0,-0.601563 -0.03125,-0.90625 -0.09375,-0.90625 -0.210938,0 -0.578125,0.203125 -1.109375,0.609375 -3.0625,2.53125 -6.460937,3.796875 -10.1875,3.796875 -4.0625,0 -7.230469,-1.597656 -9.5,-4.796875 C 3.960938,-6.757812 3,-10.054688 3,-13.984375 Z m 0,0"
             id="path4" />
        </g>
      </g>
    </g>
    <g
       fill="#000000"
       fill-opacity="1"
       id="g10"
       transform="translate(-63.872093,-113.7585)">
      <g
         transform="translate(161.55405,170.1043)"
         id="g9">
        <g
           id="g8">
          <path
             d="m 38.265625,-39.671875 c 0.269531,0.46875 0.101563,0.703125 -0.5,0.703125 -0.53125,0 -1.0625,-0.300781 -1.59375,-0.90625 -0.867187,-0.863281 -1.328125,-1.328125 -1.390625,-1.390625 -0.46875,-0.332031 -1.171875,-0.5 -2.109375,-0.5 H 23.1875 c -0.867188,0 -1.296875,0.933594 -1.296875,2.796875 V -4.5 c 0,0.335938 0.144531,0.773438 0.4375,1.3125 0.300781,0.53125 0.453125,0.996094 0.453125,1.390625 0,1.335937 -0.601562,2 -1.796875,2 -1.136719,0 -1.703125,-0.703125 -1.703125,-2.109375 0,-0.320312 0.09766,-0.734375 0.296875,-1.234375 0.207031,-0.5 0.3125,-0.914063 0.3125,-1.25 v -34.6875 c 0,-1.863281 -0.570313,-2.796875 -1.703125,-2.796875 H 9.09375 c -0.398438,0 -0.929688,0.273438 -1.59375,0.8125 -0.335938,0.261719 -0.96875,1.058594 -1.90625,2.390625 -0.335938,0.46875 -0.667969,0.636719 -1,0.5 -0.398438,-0.132813 -0.5625,-0.332031 -0.5,-0.59375 0.195312,-0.875 0.664062,-2.207031 1.40625,-4 0.332031,-0.664063 0.929688,-1 1.796875,-1 h 28.28125 c 0.394531,0 0.691406,0.167969 0.890625,0.5 0.332031,0.667969 0.929688,1.867187 1.796875,3.59375 z m 0,0"
             id="path7" />
        </g>
      </g>
    </g>
    <g
       fill="#000000"
       fill-opacity="1"
       id="g13"
       transform="translate(-63.872093,-113.7585)">
      <g
         transform="translate(195.38153,170.1043)"
         id="g12">
        <g
           id="g11">
          <path
             d="m 30.375,-1.90625 c 0,1.273438 -0.5,1.90625 -1.5,1.90625 -0.792969,0 -1.257812,-0.53125 -1.390625,-1.59375 0,-0.207031 0.03125,-0.425781 0.09375,-0.65625 0.07031,-0.226562 0.109375,-0.410156 0.109375,-0.546875 V -4 c 0,-0.53125 -0.105469,-0.796875 -0.3125,-0.796875 -0.199219,0 -0.59375,0.199219 -1.1875,0.59375 -2.53125,1.605469 -4.53125,2.742187 -6,3.40625 -2.199219,0.925781 -4.496094,1.390625 -6.890625,1.390625 -2.742187,0 -5.058594,-1.046875 -6.953125,-3.140625 C 4.445312,-4.648438 3.5,-7.097656 3.5,-9.890625 c 0,-3.394531 1.164062,-6.394531 3.5,-9 1.457031,-1.59375 4.21875,-3.753906 8.28125,-6.484375 1.9375,-1.269531 5.171875,-2.703125 9.703125,-4.296875 0.257813,-0.07031 0.390625,-0.238281 0.390625,-0.5 0,-0.269531 -0.199219,-0.4375 -0.59375,-0.5 -1.335938,-0.332031 -2.601562,-0.5 -3.796875,-0.5 -2.0625,0 -4.527344,0.632813 -7.390625,1.890625 -1.199219,0.53125 -2.335938,1.234375 -3.40625,2.109375 -1.0625,0.867187 -2.125,1.730469 -3.1875,2.59375 -0.210938,0.136719 -0.445312,0.167969 -0.703125,0.09375 -0.273437,-0.0625 -0.40625,-0.191406 -0.40625,-0.390625 0,-0.132812 0.035156,-0.300781 0.109375,-0.5 0.394531,-0.800781 1.0625,-2.503906 2,-5.109375 0.125,-0.332031 0.488281,-0.5625 1.09375,-0.6875 0.195312,-0.07031 0.425781,-0.02344 0.6875,0.140625 0.269531,0.167969 0.472656,0.25 0.609375,0.25 0.53125,0 1.03125,-0.09766 1.5,-0.296875 2.53125,-1.0625 4.128906,-1.691406 4.796875,-1.890625 1.726562,-0.539062 3.492188,-0.8125 5.296875,-0.8125 2.46875,0 4.414063,0.703125 5.84375,2.109375 1.4375,1.398437 2.15625,3.195313 2.15625,5.390625 v 23.1875 c 0,0.136719 0.0625,0.320312 0.1875,0.546875 0.132813,0.230469 0.203125,0.445313 0.203125,0.640625 z M 27.6875,-10.5 v -15.578125 c 0,-1.269531 -0.539062,-1.90625 -1.609375,-1.90625 -0.261719,0 -0.558594,0.07031 -0.890625,0.203125 -2.53125,0.9375 -4.101562,1.539062 -4.703125,1.796875 -1.59375,0.667969 -3.09375,1.5 -4.5,2.5 -3.53125,2.53125 -5.964844,4.53125 -7.296875,6 -2.0625,2.335937 -3.09375,4.867187 -3.09375,7.59375 0,2.199219 0.816406,4.101563 2.453125,5.703125 1.632813,1.59375 3.550781,2.390625 5.75,2.390625 2.195313,0 4.191406,-0.46875 5.984375,-1.40625 0.332031,-0.125 2.300781,-1.320313 5.90625,-3.59375 1.332031,-0.863281 2,-2.097656 2,-3.703125 z m 0,0"
             id="path10" />
        </g>
      </g>
    </g>
    <g
       fill="#000000"
       fill-opacity="1"
       id="g16"
       transform="translate(-63.872093,-113.7585)">
      <g
         transform="translate(225.71229,170.1043)"
         id="g15">
        <g
           id="g14">
          <path
             d="m 14.796875,-30.78125 c 0,0.804688 -0.4375,1.203125 -1.3125,1.203125 H 7.59375 c -0.867188,0 -1.296875,0.632813 -1.296875,1.890625 v 25.890625 c 0,2.257813 0.929687,4.625 2.796875,7.09375 0.269531,0.332031 0.734375,0.597656 1.390625,0.796875 0.664063,0.195312 1.035156,0.296875 1.109375,0.296875 0.664062,0.332031 1,0.832031 1,1.5 0,0.800781 -0.433594,1.203125 -1.296875,1.203125 -0.53125,0 -1.265625,-0.304688 -2.203125,-0.90625 C 7.625,7.257812 6.390625,5.660156 5.390625,3.390625 4.523438,1.398438 4.09375,-0.328125 4.09375,-1.796875 v -31.78125 c 0,-0.332031 -0.039062,-0.765625 -0.109375,-1.296875 -0.0625,-0.53125 -0.09375,-0.929688 -0.09375,-1.203125 0,-1.0625 0.5,-1.59375 1.5,-1.59375 0.863281,0 1.296875,0.570313 1.296875,1.703125 0,0.261719 -0.070312,0.609375 -0.203125,1.046875 -0.125,0.429687 -0.1875,0.808594 -0.1875,1.140625 0,1.40625 0.398437,2.109375 1.203125,2.109375 h 4.59375 c 0.195312,0 0.425781,-0.03125 0.6875,-0.09375 0.269531,-0.07031 0.472656,-0.109375 0.609375,-0.109375 0.9375,0 1.40625,0.367188 1.40625,1.09375 z m 0,0"
             id="path13" />
        </g>
      </g>
    </g>
    <g
       fill="#000000"
       fill-opacity="1"
       id="g19"
       transform="translate(-63.872093,-113.7585)">
      <g
         transform="translate(236.0617,170.1043)"
         id="g18">
        <g
           id="g17">
          <path
             d="m 14.796875,-30.78125 c 0,0.804688 -0.4375,1.203125 -1.3125,1.203125 H 7.59375 c -0.867188,0 -1.296875,0.632813 -1.296875,1.890625 v 25.890625 c 0,2.257813 0.929687,4.625 2.796875,7.09375 0.269531,0.332031 0.734375,0.597656 1.390625,0.796875 0.664063,0.195312 1.035156,0.296875 1.109375,0.296875 0.664062,0.332031 1,0.832031 1,1.5 0,0.800781 -0.433594,1.203125 -1.296875,1.203125 -0.53125,0 -1.265625,-0.304688 -2.203125,-0.90625 C 7.625,7.257812 6.390625,5.660156 5.390625,3.390625 4.523438,1.398438 4.09375,-0.328125 4.09375,-1.796875 v -31.78125 c 0,-0.332031 -0.039062,-0.765625 -0.109375,-1.296875 -0.0625,-0.53125 -0.09375,-0.929688 -0.09375,-1.203125 0,-1.0625 0.5,-1.59375 1.5,-1.59375 0.863281,0 1.296875,0.570313 1.296875,1.703125 0,0.261719 -0.070312,0.609375 -0.203125,1.046875 -0.125,0.429687 -0.1875,0.808594 -0.1875,1.140625 0,1.40625 0.398437,2.109375 1.203125,2.109375 h 4.59375 c 0.195312,0 0.425781,-0.03125 0.6875,-0.09375 0.269531,-0.07031 0.472656,-0.109375 0.609375,-0.109375 0.9375,0 1.40625,0.367188 1.40625,1.09375 z m 0,0"
             id="path16" />
        </g>
      </g>
    </g>
    <g
       fill="#000000"
       fill-opacity="1"
       id="g22"
       transform="translate(-63.872093,-113.7585)">
      <g
         transform="translate(246.41111,170.1043)"
         id="g21">
        <g
           id="g20">
          <path
             d="m 33.078125,-16.484375 c 0,4.460937 -1.484375,8.324219 -4.453125,11.59375 C 25.664062,-1.628906 22.019531,0 17.6875,0 13.550781,0 10.082031,-1.5625 7.28125,-4.6875 c -2.792969,-3.132812 -4.1875,-6.832031 -4.1875,-11.09375 0,-4.53125 1.394531,-8.507812 4.1875,-11.9375 2.800781,-3.4375 6.335938,-5.15625 10.609375,-5.15625 4.394531,0 8.023437,1.617188 10.890625,4.84375 2.863281,3.230469 4.296875,7.078125 4.296875,11.546875 z M 30.78125,-16.59375 c 0,-3.59375 -1.21875,-6.820312 -3.65625,-9.6875 -2.429688,-2.863281 -5.40625,-4.296875 -8.9375,-4.296875 -3.867188,0 -6.914062,1.449219 -9.140625,4.34375 -2.230469,2.898437 -3.34375,6.34375 -3.34375,10.34375 0,3.867187 1.113281,7.148437 3.34375,9.84375 C 11.273438,-3.347656 14.125,-2 17.59375,-2 c 3.726562,0 6.859375,-1.460938 9.390625,-4.390625 2.53125,-2.9375 3.796875,-6.335937 3.796875,-10.203125 z m 0,0"
             id="path19" />
        </g>
      </g>
    </g>
    <g
       fill="#000000"
       fill-opacity="1"
       id="g25"
       transform="translate(-63.872093,-113.7585)">
      <g
         transform="translate(279.43935,170.1043)"
         id="g24">
        <g
           id="g23">
          <path
             d="m 33.078125,-16.484375 c 0,4.460937 -1.484375,8.324219 -4.453125,11.59375 C 25.664062,-1.628906 22.019531,0 17.6875,0 13.550781,0 10.082031,-1.5625 7.28125,-4.6875 c -2.792969,-3.132812 -4.1875,-6.832031 -4.1875,-11.09375 0,-4.53125 1.394531,-8.507812 4.1875,-11.9375 2.800781,-3.4375 6.335938,-5.15625 10.609375,-5.15625 4.394531,0 8.023437,1.617188 10.890625,4.84375 2.863281,3.230469 4.296875,7.078125 4.296875,11.546875 z M 30.78125,-16.59375 c 0,-3.59375 -1.21875,-6.820312 -3.65625,-9.6875 -2.429688,-2.863281 -5.40625,-4.296875 -8.9375,-4.296875 -3.867188,0 -6.914062,1.449219 -9.140625,4.34375 -2.230469,2.898437 -3.34375,6.34375 -3.34375,10.34375 0,3.867187 1.113281,7.148437 3.34375,9.84375 C 11.273438,-3.347656 14.125,-2 17.59375,-2 c 3.726562,0 6.859375,-1.460938 9.390625,-4.390625 2.53125,-2.9375 3.796875,-6.335937 3.796875,-10.203125 z m 0,0"
             id="path22" />
        </g>
      </g>
    </g>
    <g
       fill="#000000"
       fill-opacity="1"
       id="g28"
       transform="translate(-63.872093,-113.7585)">
      <g
         transform="translate(118.53326,278.56882)"
         id="g27">
        <g
           id="g26">
          <path
             d="M 5.320312,-89.066406 C -6.152344,-71.484375 2.5,-52.328125 18.644531,-38.632812 28.175781,-30.304688 44.09375,-15.5 38.542969,-4.023438 34.5625,4.117188 16.285156,3.5625 13.371094,-8.976562 c -0.925782,-3.976563 -0.878906,-12.121094 10.179687,-13.464844 1.988281,-0.230469 1.574219,-3.238282 -0.417969,-3.007813 -9.296874,1.296875 -12.492187,9.164063 -10.824218,16.289063 C 15.40625,4.304688 34.980469,6.199219 40.253906,-3.703125 47.054688,-16.472656 31.371094,-31.460938 20.773438,-41.179688 4.90625,-53.949219 -5.460938,-71.578125 6.0625,-88.558594 c 13.183594,-19.523436 44.785156,-21.234376 37.753906,-1.800781 -1.945312,5.132813 -5.414062,7.445313 -8.515625,9.945313 -1.941406,1.574218 0.464844,4.582031 2.453125,2.960937 3.839844,-3.144531 7.125,-7.261719 8.605469,-12.074219 6.570313,-22.300786 -27.066406,-20.730466 -41.039063,0.460938 z m 0,0"
             id="path25" />
        </g>
      </g>
    </g>
    <g
       fill="#000000"
       fill-opacity="1"
       id="g31"
       transform="translate(-63.872093,-113.7585)">
      <g
         transform="translate(170.25157,278.56882)"
         id="g30">
        <g
           id="g29">
          <path
             d="m 53.761719,-83.28125 c -2.21875,0.08984 -5.503907,0.460938 -10.363281,0.925781 -14.621094,1.386719 -30.675782,2.265625 -39.652344,2.589844 -0.042969,0 -0.042969,0 -0.089844,0 0.183594,-2.453125 0.460938,-6.199219 0.691406,-9.070313 1.113282,0 1.945313,-0.925781 1.945313,-1.988281 -0.09375,-2.453125 -0.1875,-5.367187 -0.324219,-6.941406 -0.324219,-3.976565 -3.46875,-3.839845 -3.980469,0.878906 -0.460937,4.90625 -0.785156,12.402344 -0.96875,17.121094 0,0.04687 0,0.04687 0,0.09375 -9.253906,0.324219 -22.257812,0.507813 -31.601562,0.136719 -3.378907,-2.3125 -9.578125,-5.875 -13.648438,-5.042969 -2.777343,0.601563 -3.84375,4.027344 -0.277343,5.691406 3.515624,1.621094 11.796874,1.804688 15.683593,1.851563 15.5,10.457031 25.308594,30.628906 28.824219,48.996094 0,6.386718 -0.140625,23.179687 1.15625,28.871093 0.832031,3.5625 4.628906,3.378907 4.441406,-0.324219 C 5.320312,-5.042969 5.320312,-14.4375 2.3125,-27.667969 2.035156,-43.628906 2.589844,-62.738281 3.609375,-78.609375 c 0.046875,0 0.136719,0 0.183594,0 14.484375,-0.972656 27.945312,-2.128906 39.652343,-2.035156 2.636719,0.04687 8.882813,0.183593 11.382813,0.832031 0.371094,0.464844 0.785156,0.695312 1.25,0.785156 1.894531,0.28125 3.285156,-2.359375 1.339844,-3.5625 -0.695313,-0.460937 -1.851563,-0.738281 -3.65625,-0.691406 z m -97.253907,2.082031 c -1.15625,-0.464843 -1.015624,-0.878906 -0.230468,-1.113281 2.820312,-0.691406 7.863281,1.34375 10.457031,2.683594 -2.636719,-0.183594 -7.636719,-0.507813 -10.226563,-1.570313 z m 43.539063,45.15625 c -5.042969,-16.195312 -13.648437,-30.492187 -27.207031,-40.992187 8.746094,-0.04687 19.339844,-0.742188 28.132812,-1.390625 -0.417968,12.171875 -0.789062,27.160156 -0.925781,42.382812 z m 0,0"
             id="path28" />
        </g>
      </g>
    </g>
    <g
       fill="#000000"
       fill-opacity="1"
       id="g34"
       transform="translate(-63.872093,-113.7585)">
      <g
         transform="translate(184.86983,278.56882)"
         id="g33">
        <g
           id="g32">
          <path
             d="m 43.628906,-40.578125 c -0.785156,1.621094 -1.664062,3.148437 -2.726562,4.535156 -3.425782,4.535157 -7.773438,5.597657 -10.96875,4.582031 -4.71875,-1.527343 -5.457032,-7.914062 -6.429688,-12.726562 -0.695312,-3.652344 -5.550781,-5.132812 -7.402344,0.417969 -1.109374,3.238281 -2.175781,6.847656 -3.609374,9.902343 -3.191407,6.800782 -7.449219,5.691407 -8.882813,1.15625 C 2.175781,-37.015625 2.867188,-43.308594 4.164062,-47.75 c 0.785157,-2.636719 -3.332031,-3.515625 -3.746093,-0.832031 -0.742188,5.089843 -1.113281,11.9375 0.644531,16.75 2.359375,6.382812 8.976562,8.050781 14.066406,-0.648438 1.898438,-3.238281 3.191406,-6.664062 4.488282,-9.902343 0.140624,-0.277344 0.277343,-0.554688 0.371093,-0.832032 1.617188,5.367188 3.839844,12.121094 9.578125,13.234375 3.652344,0.832031 8.234375,-0.511719 12.261719,-5.320312 1.339844,-1.621094 3.050781,-3.980469 3.328125,-4.488281 0.554688,-1.019532 -1.015625,-1.757813 -1.527344,-0.789063 z m 0,0"
             id="path31" />
        </g>
      </g>
    </g>
    <g
       fill="#000000"
       fill-opacity="1"
       id="g37"
       transform="translate(-63.872093,-113.7585)">
      <g
         transform="translate(229.2329,278.56882)"
         id="g36">
        <g
           id="g35">
          <path
             d="M 25.863281,0.09375 C 24.152344,0.460938 22.441406,-1.574219 21.5625,-3.054688 16.886719,-10.550781 15.5,-24.890625 15.175781,-33.730469 c 6.015625,-19.0625 8.699219,-48.625 7.21875,-58.34375 -0.925781,-5.921875 -4.441406,-6.753906 -6.894531,0.140625 -4.117188,11.890625 -4.582031,33.082032 -3.332031,46.960938 -1.25,-0.785156 -2.453125,-1.203125 -3.332031,-1.339844 -12.074219,-2.039062 -15.636719,27.710938 -5.734376,28.546875 5.367188,0.460937 8.972657,-7.3125 10.824219,-12.308594 1.066407,7.125 3.054688,21.328125 6.109375,27.851563 1.25,2.59375 3.609375,5.878906 6.429688,5.277344 1.988281,-0.417969 1.34375,-3.378907 -0.601563,-2.960938 z m -8.375,-91.378906 c 1.34375,-5.136719 2.683594,-4.722656 3.609375,-0.558594 2.683594,12.214844 -1.851562,39.5625 -6.015625,53.070312 -0.04687,-6.382812 0,-42.890624 2.40625,-52.511718 z M 3.746094,-20.171875 c -6.753906,0.277344 -3.003906,-24.382813 4.398437,-22.535156 1.894531,0.417969 2.636719,2.316406 4.347657,1.4375 0.324218,3.007812 0.554687,4.671875 0.925781,7.492187 -1.480469,4.074219 -5.320313,13.417969 -9.671875,13.605469 z m 0,0"
             id="path34" />
        </g>
      </g>
    </g>
    <g
       fill="#000000"
       fill-opacity="1"
       id="g40"
       transform="translate(-63.872093,-113.7585)">
      <g
         transform="translate(256.94257,278.56882)"
         id="g39">
        <g
           id="g38">
          <path
             d="m 19.292969,-40.808594 c -0.738281,1.664063 -1.574219,3.285156 -2.542969,4.8125 -4.859375,7.679688 -12.910156,7.542969 -14.113281,-1.15625 -0.183594,-1.621094 -0.230469,-3.285156 -0.09375,-4.953125 1.527343,1.019531 3.378906,0.04687 3.285156,-1.617187 -0.042969,-0.785156 -0.554687,-1.386719 -1.203125,-1.667969 -0.554688,-0.878906 -1.0625,-2.683594 -1.339844,-3.328125 -0.878906,-1.804688 -3.238281,-1.574219 -3.515625,0.601562 -0.464843,3.515626 -0.140625,7.910157 0.648438,11.378907 2.542969,10.089843 11.472656,9.996093 17.210937,1.296875 1.015625,-1.621094 2.683594,-4.582032 2.867188,-4.8125 0.371094,-0.738282 -0.832032,-1.292969 -1.203125,-0.554688 z m -15.5,-14.066406 c 0,1.480469 -0.925781,2.683594 -1.988281,2.683594 -1.109376,0 -2.035157,-1.203125 -2.035157,-2.683594 0,-1.433594 0.925781,-2.636719 2.035157,-2.636719 1.0625,0 1.988281,1.203125 1.988281,2.636719 z m 0,0"
             id="path37" />
        </g>
      </g>
    </g>
    <g
       fill="#000000"
       fill-opacity="1"
       id="g43"
       transform="translate(-63.872093,-113.7585)">
      <g
         transform="translate(276.97319,278.56882)"
         id="g42">
        <g
           id="g41">
          <path
             d="m 25.679688,-40.902344 c -1.574219,1.390625 -3.5625,2.316406 -5.597657,2.40625 -5.089843,0.324219 -9.441406,-4.070312 -12.355469,-8.1875 -0.09375,-0.695312 -0.460937,-1.296875 -1.0625,-1.574218 -0.140624,-0.183594 -0.601562,-1.015626 -1.203124,-1.664063 -1.574219,-1.667969 -4.675782,1.015625 -2.222657,3.144531 -2.40625,2.777344 -3.746093,6.847656 -3.839843,10.457032 -0.417969,12.261718 14.390624,11.289062 10.59375,-1.527344 -0.460938,-1.480469 -0.921876,-2.914063 -1.433594,-4.394532 3.472656,2.730469 7.125,4.765626 11.566406,4.488282 2.40625,-0.140625 4.398438,-0.878906 6.433594,-1.710938 1.292968,-0.511718 0.08984,-2.363281 -0.878906,-1.4375 z m -24.015626,4.765625 c 0.464844,-3.5625 2.128907,-6.382812 3.933594,-7.910156 1.433594,2.128906 2.5,4.441406 3.148438,6.570313 3.097656,10.410156 -8.328125,11.011718 -7.082032,1.339843 z m 0,0"
             id="path40" />
        </g>
      </g>
    </g>
    <g
       fill="#000000"
       fill-opacity="1"
       id="g46"
       transform="translate(-63.872093,-113.7585)">
      <g
         transform="translate(59.799723,234.46962)"
         id="g45">
        <g
           id="g44">
          <path
             d="m 44.273438,-68.503906 c 6.59375,-7.617188 11.757812,-20.296875 11.398437,-31.132813 -0.816406,-18.660161 -18.503906,-23.160161 -34.507813,-15.285161 -0.101562,-0.97265 -0.203124,-2.25 -0.460937,-3.42578 -0.5625,-2.55859 -3.167969,-2.60937 -3.371094,0.66407 -0.05078,0.61328 -0.15625,4.03906 -0.15625,5.05859 -23.71875,15.183594 -21.777343,50.152344 -0.457031,55.929688 -0.05469,8.589843 -0.05469,13.703124 -0.257812,20.652343 C 5.011719,-27.300781 3.578125,-12.21875 10.839844,-3.578125 22.546875,10.277344 48.3125,0 60.476562,-13.546875 80.875,-36.246094 72.59375,-70.652344 44.273438,-68.503906 Z M 17.125,-111.03906 c -0.101562,8.6914 0.308594,9.91797 -1.582031,12.527341 -0.972657,1.328125 -0.207031,3.167969 1.480469,3.371094 -0.101563,10.175781 -0.101563,18.148437 -0.253907,35.277344 C -2.351562,-63.1875 -5.519531,-96.621094 17.125,-111.03906 Z m 41.460938,95.804685 c -10.886719,13.085937 -34.96875,23.875 -46.519532,11.347656 -7.261718,-7.871093 -6.390625,-22.238281 4.34375,-30.773437 -0.511718,12.269531 -1.378906,16.460937 -1.277344,17.226562 0.203126,2.148438 3.527344,2.046875 3.269532,-0.460937 -0.558594,-5.878907 -0.765625,-11.808594 -0.867188,-17.6875 12.320313,-8.742188 34.867188,-6.234375 38.75,-6.390625 1.890625,-0.101563 1.789063,-2.914063 -0.101562,-2.863282 -14.3125,0.613282 -28.882813,1.28125 -38.648438,7.976563 -0.05078,-6.644531 0.152344,-11.808594 0.308594,-19.527344 1.941406,0.457031 5.929688,1.019531 6.746094,0.96875 2.8125,-0.253906 2.402344,-4.496093 -0.410156,-4.242187 -2.09375,0.203125 -4.191407,0.203125 -6.285157,-0.05078 0.05078,-1.175781 0.253907,-14.671874 1.125,-36.347656 2.707031,-3.683594 2.503907,-12.679688 2.246094,-17.281248 13.394531,-6.33985 31.03125,-4.14063 31.03125,13.753904 -0.05078,14.007813 -10.273437,30.519532 -17.023437,32.820313 -2.453126,0.816406 -1.632813,4.855469 1.6875,3.886719 31.59375,-9.253906 40.234374,25.660156 21.625,47.644531 z m 0,0"
             id="path43" />
        </g>
      </g>
    </g>
  </g>
</svg>
